<?xml version="1.0" encoding="UTF-8" standalone="no"?>
<!DOCTYPE svg PUBLIC "-//W3C//DTD SVG 1.1//EN"
 "http://www.w3.org/Graphics/SVG/1.1/DTD/svg11.dtd">
<!-- Generated by graphviz version 13.1.0 (20250701.0955)
 -->
<!-- Title: interface/driver_max7219_interface.h Pages: 1 -->
<svg width="680pt" height="176pt"
 viewBox="0.00 0.00 680.00 176.00" xmlns="http://www.w3.org/2000/svg" xmlns:xlink="http://www.w3.org/1999/xlink">
<g id="graph0" class="graph" transform="scale(1 1) rotate(0) translate(4 172)">
<title>interface/driver_max7219_interface.h</title>
<!-- Node1 -->
<g id="Node000001" class="node">
<title>Node1</title>
<g id="a_Node000001"><a xlink:title="driver max7219 interface header file">
<polygon fill="#999999" stroke="#666666" points="411.12,-168 285.62,-168 285.62,-136 411.12,-136 411.12,-168"/>
<text xml:space="preserve" text-anchor="start" x="293.62" y="-154.5" font-family="Helvetica,sans-Serif" font-size="10.00">interface/driver_max7219</text>
<text xml:space="preserve" text-anchor="middle" x="348.38" y="-142.5" font-family="Helvetica,sans-Serif" font-size="10.00">_interface.h</text>
</a>
</g>
</g>
<!-- Node2 -->
<g id="Node000002" class="node">
<title>Node2</title>
<g id="a_Node000002"><a xlink:href="driver__max7219__basic_8h.html" target="_top" xlink:title="driver max7219 basic header file">
<polygon fill="white" stroke="#666666" points="124.75,-100 0,-100 0,-68 124.75,-68 124.75,-100"/>
<text xml:space="preserve" text-anchor="start" x="8" y="-86.5" font-family="Helvetica,sans-Serif" font-size="10.00">example/driver_max7219</text>
<text xml:space="preserve" text-anchor="middle" x="62.38" y="-74.5" font-family="Helvetica,sans-Serif" font-size="10.00">_basic.h</text>
</a>
</g>
</g>
<!-- Node1&#45;&gt;Node2 -->
<g id="edge1_Node000001_Node000002" class="edge">
<title>Node1&#45;&gt;Node2</title>
<g id="a_edge1_Node000001_Node000002"><a xlink:title=" ">
<path fill="none" stroke="#63b8ff" d="M274.07,-133.85C227.73,-123.16 168.76,-109.55 124.84,-99.41"/>
<polygon fill="#63b8ff" stroke="#63b8ff" points="273.25,-137.26 283.78,-136.09 274.83,-130.43 273.25,-137.26"/>
</a>
</g>
</g>
<!-- Node4 -->
<g id="Node000004" class="node">
<title>Node4</title>
<g id="a_Node000004"><a xlink:href="driver__max7219__cascade_8h.html" target="_top" xlink:title="driver max7219 cascade header file">
<polygon fill="white" stroke="#666666" points="267.75,-100 143,-100 143,-68 267.75,-68 267.75,-100"/>
<text xml:space="preserve" text-anchor="start" x="151" y="-86.5" font-family="Helvetica,sans-Serif" font-size="10.00">example/driver_max7219</text>
<text xml:space="preserve" text-anchor="middle" x="205.38" y="-74.5" font-family="Helvetica,sans-Serif" font-size="10.00">_cascade.h</text>
</a>
</g>
</g>
<!-- Node1&#45;&gt;Node4 -->
<g id="edge3_Node000001_Node000004" class="edge">
<title>Node1&#45;&gt;Node4</title>
<g id="a_edge3_Node000001_Node000004"><a xlink:title=" ">
<path fill="none" stroke="#63b8ff" d="M304.48,-130.74C283.29,-120.96 258.29,-109.42 238.69,-100.38"/>
<polygon fill="#63b8ff" stroke="#63b8ff" points="302.93,-133.88 313.47,-134.89 305.86,-127.52 302.93,-133.88"/>
</a>
</g>
</g>
<!-- Node6 -->
<g id="Node000006" class="node">
<title>Node6</title>
<g id="a_Node000006"><a xlink:href="driver__max7219__interface__template_8c.html" target="_top" xlink:title="driver max7219 interface template source file">
<polygon fill="white" stroke="#666666" points="411.12,-100 285.62,-100 285.62,-68 411.12,-68 411.12,-100"/>
<text xml:space="preserve" text-anchor="start" x="293.62" y="-86.5" font-family="Helvetica,sans-Serif" font-size="10.00">interface/driver_max7219</text>
<text xml:space="preserve" text-anchor="middle" x="348.38" y="-74.5" font-family="Helvetica,sans-Serif" font-size="10.00">_interface_template.c</text>
</a>
</g>
</g>
<!-- Node1&#45;&gt;Node6 -->
<g id="edge5_Node000001_Node000006" class="edge">
<title>Node1&#45;&gt;Node6</title>
<g id="a_edge5_Node000001_Node000006"><a xlink:title=" ">
<path fill="none" stroke="#63b8ff" d="M348.38,-124.31C348.38,-116.12 348.38,-107.38 348.38,-100.22"/>
<polygon fill="#63b8ff" stroke="#63b8ff" points="344.88,-124.18 348.38,-134.18 351.88,-124.18 344.88,-124.18"/>
</a>
</g>
</g>
<!-- Node7 -->
<g id="Node000007" class="node">
<title>Node7</title>
<g id="a_Node000007"><a xlink:href="driver__max7219__display__test_8h.html" target="_top" xlink:title="driver max7219 display test header file">
<polygon fill="white" stroke="#666666" points="533.62,-100 429.12,-100 429.12,-68 533.62,-68 533.62,-100"/>
<text xml:space="preserve" text-anchor="start" x="437.12" y="-86.5" font-family="Helvetica,sans-Serif" font-size="10.00">test/driver_max7219</text>
<text xml:space="preserve" text-anchor="middle" x="481.38" y="-74.5" font-family="Helvetica,sans-Serif" font-size="10.00">_display_test.h</text>
</a>
</g>
</g>
<!-- Node1&#45;&gt;Node7 -->
<g id="edge6_Node000001_Node000007" class="edge">
<title>Node1&#45;&gt;Node7</title>
<g id="a_edge6_Node000001_Node000007"><a xlink:title=" ">
<path fill="none" stroke="#63b8ff" d="M389.74,-130.47C409.33,-120.75 432.33,-109.34 450.39,-100.38"/>
<polygon fill="#63b8ff" stroke="#63b8ff" points="388.32,-127.27 380.91,-134.85 391.43,-133.54 388.32,-127.27"/>
</a>
</g>
</g>
<!-- Node9 -->
<g id="Node000009" class="node">
<title>Node9</title>
<g id="a_Node000009"><a xlink:href="driver__max7219__matrix__cascade__test_8h.html" target="_top" xlink:title="driver max7219 matrix cascade test header file">
<polygon fill="white" stroke="#666666" points="671.5,-100 551.25,-100 551.25,-68 671.5,-68 671.5,-100"/>
<text xml:space="preserve" text-anchor="start" x="559.25" y="-86.5" font-family="Helvetica,sans-Serif" font-size="10.00">test/driver_max7219</text>
<text xml:space="preserve" text-anchor="middle" x="611.38" y="-74.5" font-family="Helvetica,sans-Serif" font-size="10.00">_matrix_cascade_test.h</text>
</a>
</g>
</g>
<!-- Node1&#45;&gt;Node9 -->
<g id="edge8_Node000001_Node000009" class="edge">
<title>Node1&#45;&gt;Node9</title>
<g id="a_edge8_Node000001_Node000009"><a xlink:title=" ">
<path fill="none" stroke="#63b8ff" d="M421.02,-132.77C461.89,-122.51 512.32,-109.86 551.01,-100.15"/>
<polygon fill="#63b8ff" stroke="#63b8ff" points="420.35,-129.33 411.5,-135.16 422.06,-136.12 420.35,-129.33"/>
</a>
</g>
</g>
<!-- Node3 -->
<g id="Node000003" class="node">
<title>Node3</title>
<g id="a_Node000003"><a xlink:href="driver__max7219__basic_8c.html" target="_top" xlink:title="driver max7219 basic source file">
<polygon fill="white" stroke="#666666" points="124.75,-32 0,-32 0,0 124.75,0 124.75,-32"/>
<text xml:space="preserve" text-anchor="start" x="8" y="-18.5" font-family="Helvetica,sans-Serif" font-size="10.00">example/driver_max7219</text>
<text xml:space="preserve" text-anchor="middle" x="62.38" y="-6.5" font-family="Helvetica,sans-Serif" font-size="10.00">_basic.c</text>
</a>
</g>
</g>
<!-- Node2&#45;&gt;Node3 -->
<g id="edge2_Node000002_Node000003" class="edge">
<title>Node2&#45;&gt;Node3</title>
<g id="a_edge2_Node000002_Node000003"><a xlink:title=" ">
<path fill="none" stroke="#63b8ff" d="M62.38,-56.31C62.38,-48.12 62.38,-39.38 62.38,-32.22"/>
<polygon fill="#63b8ff" stroke="#63b8ff" points="58.88,-56.18 62.38,-66.18 65.88,-56.18 58.88,-56.18"/>
</a>
</g>
</g>
<!-- Node5 -->
<g id="Node000005" class="node">
<title>Node5</title>
<g id="a_Node000005"><a xlink:href="driver__max7219__cascade_8c.html" target="_top" xlink:title="driver max7219 cascade source file">
<polygon fill="white" stroke="#666666" points="267.75,-32 143,-32 143,0 267.75,0 267.75,-32"/>
<text xml:space="preserve" text-anchor="start" x="151" y="-18.5" font-family="Helvetica,sans-Serif" font-size="10.00">example/driver_max7219</text>
<text xml:space="preserve" text-anchor="middle" x="205.38" y="-6.5" font-family="Helvetica,sans-Serif" font-size="10.00">_cascade.c</text>
</a>
</g>
</g>
<!-- Node4&#45;&gt;Node5 -->
<g id="edge4_Node000004_Node000005" class="edge">
<title>Node4&#45;&gt;Node5</title>
<g id="a_edge4_Node000004_Node000005"><a xlink:title=" ">
<path fill="none" stroke="#63b8ff" d="M205.38,-56.31C205.38,-48.12 205.38,-39.38 205.38,-32.22"/>
<polygon fill="#63b8ff" stroke="#63b8ff" points="201.88,-56.18 205.38,-66.18 208.88,-56.18 201.88,-56.18"/>
</a>
</g>
</g>
<!-- Node8 -->
<g id="Node000008" class="node">
<title>Node8</title>
<g id="a_Node000008"><a xlink:href="driver__max7219__display__test_8c.html" target="_top" xlink:title="driver max7219 display test source file">
<polygon fill="white" stroke="#666666" points="533.62,-32 429.12,-32 429.12,0 533.62,0 533.62,-32"/>
<text xml:space="preserve" text-anchor="start" x="437.12" y="-18.5" font-family="Helvetica,sans-Serif" font-size="10.00">test/driver_max7219</text>
<text xml:space="preserve" text-anchor="middle" x="481.38" y="-6.5" font-family="Helvetica,sans-Serif" font-size="10.00">_display_test.c</text>
</a>
</g>
</g>
<!-- Node7&#45;&gt;Node8 -->
<g id="edge7_Node000007_Node000008" class="edge">
<title>Node7&#45;&gt;Node8</title>
<g id="a_edge7_Node000007_Node000008"><a xlink:title=" ">
<path fill="none" stroke="#63b8ff" d="M481.38,-56.31C481.38,-48.12 481.38,-39.38 481.38,-32.22"/>
<polygon fill="#63b8ff" stroke="#63b8ff" points="477.88,-56.18 481.38,-66.18 484.88,-56.18 477.88,-56.18"/>
</a>
</g>
</g>
<!-- Node10 -->
<g id="Node000010" class="node">
<title>Node10</title>
<g id="a_Node000010"><a xlink:href="driver__max7219__matrix__cascade__test_8c.html" target="_top" xlink:title="driver max7219 matrix cascade test source file">
<polygon fill="white" stroke="#666666" points="671.5,-32 551.25,-32 551.25,0 671.5,0 671.5,-32"/>
<text xml:space="preserve" text-anchor="start" x="559.25" y="-18.5" font-family="Helvetica,sans-Serif" font-size="10.00">test/driver_max7219</text>
<text xml:space="preserve" text-anchor="middle" x="611.38" y="-6.5" font-family="Helvetica,sans-Serif" font-size="10.00">_matrix_cascade_test.c</text>
</a>
</g>
</g>
<!-- Node9&#45;&gt;Node10 -->
<g id="edge9_Node000009_Node000010" class="edge">
<title>Node9&#45;&gt;Node10</title>
<g id="a_edge9_Node000009_Node000010"><a xlink:title=" ">
<path fill="none" stroke="#63b8ff" d="M611.38,-56.31C611.38,-48.12 611.38,-39.38 611.38,-32.22"/>
<polygon fill="#63b8ff" stroke="#63b8ff" points="607.88,-56.18 611.38,-66.18 614.88,-56.18 607.88,-56.18"/>
</a>
</g>
</g>
</g>
</svg>
