<?xml version="1.0" encoding="UTF-8" standalone="no"?>
<!DOCTYPE svg PUBLIC "-//W3C//DTD SVG 1.1//EN"
 "http://www.w3.org/Graphics/SVG/1.1/DTD/svg11.dtd">
<!-- Generated by graphviz version 13.1.0 (20250701.0955)
 -->
<!-- Title: max7219_cascade_init Pages: 1 -->
<svg width="306pt" height="380pt"
 viewBox="0.00 0.00 306.00 380.00" xmlns="http://www.w3.org/2000/svg" xmlns:xlink="http://www.w3.org/1999/xlink">
<g id="graph0" class="graph" transform="scale(1 1) rotate(0) translate(4 376)">
<title>max7219_cascade_init</title>
<!-- Node1 -->
<g id="Node000001" class="node">
<title>Node1</title>
<g id="a_Node000001"><a xlink:title="cascade example init">
<polygon fill="#999999" stroke="#666666" points="115.75,-202 0,-202 0,-182 115.75,-182 115.75,-202"/>
<text xml:space="preserve" text-anchor="middle" x="57.88" y="-188.5" font-family="Helvetica,sans-Serif" font-size="10.00">max7219_cascade_init</text>
</a>
</g>
</g>
<!-- Node2 -->
<g id="Node000002" class="node">
<title>Node2</title>
<g id="a_Node000002"><a xlink:href="group__max7219__base__driver.html#ga7ea5c1ff55eeea0dfbc3d69e59f2b4c8" target="_top" xlink:title="close the chip">
<polygon fill="white" stroke="#666666" points="266.75,-372 182.5,-372 182.5,-352 266.75,-352 266.75,-372"/>
<text xml:space="preserve" text-anchor="middle" x="224.62" y="-358.5" font-family="Helvetica,sans-Serif" font-size="10.00">max7219_deinit</text>
</a>
</g>
</g>
<!-- Node1&#45;&gt;Node2 -->
<g id="edge1_Node000001_Node000002" class="edge">
<title>Node1&#45;&gt;Node2</title>
<g id="a_edge1_Node000001_Node000002"><a xlink:title=" ">
<path fill="none" stroke="#63b8ff" d="M62.16,-202.3C71.45,-229.73 100.61,-305.01 151.75,-343 157.53,-347.29 164.2,-350.62 171.11,-353.19"/>
<polygon fill="#63b8ff" stroke="#63b8ff" points="170.01,-356.52 180.6,-356.19 172.12,-349.84 170.01,-356.52"/>
</a>
</g>
</g>
<!-- Node3 -->
<g id="Node000003" class="node">
<title>Node3</title>
<g id="a_Node000003"><a xlink:href="group__max7219__base__driver.html#ga3a54db8a399f6092416bf79b161d24ec" target="_top" xlink:title="initialize the chip">
<polygon fill="white" stroke="#666666" points="261.5,-334 187.75,-334 187.75,-314 261.5,-314 261.5,-334"/>
<text xml:space="preserve" text-anchor="middle" x="224.62" y="-320.5" font-family="Helvetica,sans-Serif" font-size="10.00">max7219_init</text>
</a>
</g>
</g>
<!-- Node1&#45;&gt;Node3 -->
<g id="edge2_Node000001_Node000003" class="edge">
<title>Node1&#45;&gt;Node3</title>
<g id="a_edge2_Node000001_Node000003"><a xlink:title=" ">
<path fill="none" stroke="#63b8ff" d="M64.31,-202.25C76.69,-224.56 109.22,-277.7 151.75,-305 159.23,-309.8 167.9,-313.4 176.56,-316.09"/>
<polygon fill="#63b8ff" stroke="#63b8ff" points="175.42,-319.4 185.99,-318.63 177.25,-312.65 175.42,-319.4"/>
</a>
</g>
</g>
<!-- Node4 -->
<g id="Node000004" class="node">
<title>Node4</title>
<g id="a_Node000004"><a xlink:href="group__max7219__interface__driver.html#gac5a6315dfa6ab9ac85bd015c89bf4c5e" target="_top" xlink:title="interface print format data">
<polygon fill="white" stroke="#666666" points="289.62,-296 159.62,-296 159.62,-264 289.62,-264 289.62,-296"/>
<text xml:space="preserve" text-anchor="start" x="167.62" y="-282.5" font-family="Helvetica,sans-Serif" font-size="10.00">max7219_interface_debug</text>
<text xml:space="preserve" text-anchor="middle" x="224.62" y="-270.5" font-family="Helvetica,sans-Serif" font-size="10.00">_print</text>
</a>
</g>
</g>
<!-- Node1&#45;&gt;Node4 -->
<g id="edge3_Node000001_Node000004" class="edge">
<title>Node1&#45;&gt;Node4</title>
<g id="a_edge3_Node000001_Node000004"><a xlink:title=" ">
<path fill="none" stroke="#63b8ff" d="M71.73,-202.33C89.07,-215.88 121.28,-239.7 151.75,-255 154.63,-256.45 157.61,-257.84 160.65,-259.19"/>
<polygon fill="#63b8ff" stroke="#63b8ff" points="159.16,-262.36 169.74,-262.97 161.85,-255.9 159.16,-262.36"/>
</a>
</g>
</g>
<!-- Node5 -->
<g id="Node000005" class="node">
<title>Node5</title>
<g id="a_Node000005"><a xlink:href="group__max7219__interface__driver.html#ga9c9afa8b37478af650f3f81591c02761" target="_top" xlink:title="interface delay ms">
<polygon fill="white" stroke="#666666" points="297.5,-246 151.75,-246 151.75,-226 297.5,-226 297.5,-246"/>
<text xml:space="preserve" text-anchor="middle" x="224.62" y="-232.5" font-family="Helvetica,sans-Serif" font-size="10.00">max7219_interface_delay_ms</text>
</a>
</g>
</g>
<!-- Node1&#45;&gt;Node5 -->
<g id="edge4_Node000001_Node000005" class="edge">
<title>Node1&#45;&gt;Node5</title>
<g id="a_edge4_Node000001_Node000005"><a xlink:title=" ">
<path fill="none" stroke="#63b8ff" d="M97.73,-202.5C114.36,-206.98 134,-212.27 151.75,-217 158.62,-218.83 165.87,-220.76 173.01,-222.65"/>
<polygon fill="#63b8ff" stroke="#63b8ff" points="172.05,-226.02 182.61,-225.19 173.84,-219.25 172.05,-226.02"/>
</a>
</g>
</g>
<!-- Node6 -->
<g id="Node000006" class="node">
<title>Node6</title>
<g id="a_Node000006"><a xlink:href="group__max7219__interface__driver.html#ga27666673fe8d3828158c16a401c455f7" target="_top" xlink:title="interface spi bus deinit">
<polygon fill="white" stroke="#666666" points="282.88,-208 166.38,-208 166.38,-176 282.88,-176 282.88,-208"/>
<text xml:space="preserve" text-anchor="start" x="174.38" y="-194.5" font-family="Helvetica,sans-Serif" font-size="10.00">max7219_interface_spi</text>
<text xml:space="preserve" text-anchor="middle" x="224.62" y="-182.5" font-family="Helvetica,sans-Serif" font-size="10.00">_deinit</text>
</a>
</g>
</g>
<!-- Node1&#45;&gt;Node6 -->
<g id="edge5_Node000001_Node000006" class="edge">
<title>Node1&#45;&gt;Node6</title>
<g id="a_edge5_Node000001_Node000006"><a xlink:title=" ">
<path fill="none" stroke="#63b8ff" d="M116.03,-192C128.54,-192 141.91,-192 154.82,-192"/>
<polygon fill="#63b8ff" stroke="#63b8ff" points="154.5,-195.5 164.5,-192 154.5,-188.5 154.5,-195.5"/>
</a>
</g>
</g>
<!-- Node7 -->
<g id="Node000007" class="node">
<title>Node7</title>
<g id="a_Node000007"><a xlink:href="group__max7219__interface__driver.html#ga0a0184800ae9bc98a87175a3c788ddef" target="_top" xlink:title="interface spi bus init">
<polygon fill="white" stroke="#666666" points="291.88,-158 157.38,-158 157.38,-138 291.88,-138 291.88,-158"/>
<text xml:space="preserve" text-anchor="middle" x="224.62" y="-144.5" font-family="Helvetica,sans-Serif" font-size="10.00">max7219_interface_spi_init</text>
</a>
</g>
</g>
<!-- Node1&#45;&gt;Node7 -->
<g id="edge6_Node000001_Node000007" class="edge">
<title>Node1&#45;&gt;Node7</title>
<g id="a_edge6_Node000001_Node000007"><a xlink:title=" ">
<path fill="none" stroke="#63b8ff" d="M97.73,-181.5C114.36,-177.02 134,-171.73 151.75,-167 158.62,-165.17 165.87,-163.24 173.01,-161.35"/>
<polygon fill="#63b8ff" stroke="#63b8ff" points="173.84,-164.75 182.61,-158.81 172.05,-157.98 173.84,-164.75"/>
</a>
</g>
</g>
<!-- Node8 -->
<g id="Node000008" class="node">
<title>Node8</title>
<g id="a_Node000008"><a xlink:href="group__max7219__interface__driver.html#ga3a74553c8b80753b0fce1f20cb9d4f4c" target="_top" xlink:title="interface spi bus write">
<polygon fill="white" stroke="#666666" points="282.88,-120 166.38,-120 166.38,-88 282.88,-88 282.88,-120"/>
<text xml:space="preserve" text-anchor="start" x="174.38" y="-106.5" font-family="Helvetica,sans-Serif" font-size="10.00">max7219_interface_spi</text>
<text xml:space="preserve" text-anchor="middle" x="224.62" y="-94.5" font-family="Helvetica,sans-Serif" font-size="10.00">_write</text>
</a>
</g>
</g>
<!-- Node1&#45;&gt;Node8 -->
<g id="edge7_Node000001_Node000008" class="edge">
<title>Node1&#45;&gt;Node8</title>
<g id="a_edge7_Node000001_Node000008"><a xlink:title=" ">
<path fill="none" stroke="#63b8ff" d="M71.73,-181.67C89.07,-168.12 121.28,-144.3 151.75,-129 154.63,-127.55 157.61,-126.16 160.65,-124.81"/>
<polygon fill="#63b8ff" stroke="#63b8ff" points="161.85,-128.1 169.74,-121.03 159.16,-121.64 161.85,-128.1"/>
</a>
</g>
</g>
<!-- Node9 -->
<g id="Node000009" class="node">
<title>Node9</title>
<g id="a_Node000009"><a xlink:href="group__max7219__interface__driver.html#ga4ff1ce83d8ce12b8d28fc65b99bc1758" target="_top" xlink:title="interface spi bus write command">
<polygon fill="white" stroke="#666666" points="282.88,-70 166.38,-70 166.38,-38 282.88,-38 282.88,-70"/>
<text xml:space="preserve" text-anchor="start" x="174.38" y="-56.5" font-family="Helvetica,sans-Serif" font-size="10.00">max7219_interface_spi</text>
<text xml:space="preserve" text-anchor="middle" x="224.62" y="-44.5" font-family="Helvetica,sans-Serif" font-size="10.00">_write_cmd</text>
</a>
</g>
</g>
<!-- Node1&#45;&gt;Node9 -->
<g id="edge8_Node000001_Node000009" class="edge">
<title>Node1&#45;&gt;Node9</title>
<g id="a_edge8_Node000001_Node000009"><a xlink:title=" ">
<path fill="none" stroke="#63b8ff" d="M64.67,-181.66C77.5,-159.63 110.5,-107.75 151.75,-79 153.35,-77.88 155.01,-76.81 156.71,-75.78"/>
<polygon fill="#63b8ff" stroke="#63b8ff" points="158.33,-78.89 165.5,-71.09 155.03,-72.71 158.33,-78.89"/>
</a>
</g>
</g>
<!-- Node10 -->
<g id="Node000010" class="node">
<title>Node10</title>
<g id="a_Node000010"><a xlink:href="group__max7219__cascade__driver.html#ga3d9eb8c98619c0a1666fc7a757e16031" target="_top" xlink:title="set the cascade data">
<polygon fill="white" stroke="#666666" points="282.88,-20 166.38,-20 166.38,0 282.88,0 282.88,-20"/>
<text xml:space="preserve" text-anchor="middle" x="224.62" y="-6.5" font-family="Helvetica,sans-Serif" font-size="10.00">max7219_set_cascade</text>
</a>
</g>
</g>
<!-- Node1&#45;&gt;Node10 -->
<g id="edge9_Node000001_Node000010" class="edge">
<title>Node1&#45;&gt;Node10</title>
<g id="a_edge9_Node000001_Node000010"><a xlink:title=" ">
<path fill="none" stroke="#63b8ff" d="M61.66,-181.73C70.04,-152.88 97.79,-70.5 151.75,-29 153.3,-27.81 154.91,-26.69 156.58,-25.65"/>
<polygon fill="#63b8ff" stroke="#63b8ff" points="158.07,-28.82 165.31,-21.09 154.83,-22.62 158.07,-28.82"/>
</a>
</g>
</g>
</g>
</svg>
