<?xml version="1.0" encoding="UTF-8" standalone="no"?>
<!DOCTYPE svg PUBLIC "-//W3C//DTD SVG 1.1//EN"
 "http://www.w3.org/Graphics/SVG/1.1/DTD/svg11.dtd">
<!-- Generated by graphviz version 13.1.0 (20250701.0955)
 -->
<!-- Title: max7219_cascade_deinit Pages: 1 -->
<svg width="287pt" height="66pt"
 viewBox="0.00 0.00 287.00 66.00" xmlns="http://www.w3.org/2000/svg" xmlns:xlink="http://www.w3.org/1999/xlink">
<g id="graph0" class="graph" transform="scale(1 1) rotate(0) translate(4 62)">
<title>max7219_cascade_deinit</title>
<!-- Node1 -->
<g id="Node000001" class="node">
<title>Node1</title>
<g id="a_Node000001"><a xlink:title="cascade example deinit">
<polygon fill="#999999" stroke="#666666" points="126.25,-39 0,-39 0,-19 126.25,-19 126.25,-39"/>
<text xml:space="preserve" text-anchor="middle" x="63.12" y="-25.5" font-family="Helvetica,sans-Serif" font-size="10.00">max7219_cascade_deinit</text>
</a>
</g>
</g>
<!-- Node2 -->
<g id="Node000002" class="node">
<title>Node2</title>
<g id="a_Node000002"><a xlink:href="group__max7219__base__driver.html#ga7ea5c1ff55eeea0dfbc3d69e59f2b4c8" target="_top" xlink:title="close the chip">
<polygon fill="white" stroke="#666666" points="262.62,-58 178.38,-58 178.38,-38 262.62,-38 262.62,-58"/>
<text xml:space="preserve" text-anchor="middle" x="220.5" y="-44.5" font-family="Helvetica,sans-Serif" font-size="10.00">max7219_deinit</text>
</a>
</g>
</g>
<!-- Node1&#45;&gt;Node2 -->
<g id="edge1_Node000001_Node000002" class="edge">
<title>Node1&#45;&gt;Node2</title>
<g id="a_edge1_Node000001_Node000002"><a xlink:title=" ">
<path fill="none" stroke="#63b8ff" d="M126.43,-36.62C139.88,-38.26 153.97,-39.99 167,-41.58"/>
<polygon fill="#63b8ff" stroke="#63b8ff" points="166.29,-45.02 176.64,-42.76 167.14,-38.07 166.29,-45.02"/>
</a>
</g>
</g>
<!-- Node3 -->
<g id="Node000003" class="node">
<title>Node3</title>
<g id="a_Node000003"><a xlink:href="group__max7219__cascade__driver.html#ga3d9eb8c98619c0a1666fc7a757e16031" target="_top" xlink:title="set the cascade data">
<polygon fill="white" stroke="#666666" points="278.75,-20 162.25,-20 162.25,0 278.75,0 278.75,-20"/>
<text xml:space="preserve" text-anchor="middle" x="220.5" y="-6.5" font-family="Helvetica,sans-Serif" font-size="10.00">max7219_set_cascade</text>
</a>
</g>
</g>
<!-- Node1&#45;&gt;Node3 -->
<g id="edge2_Node000001_Node000003" class="edge">
<title>Node1&#45;&gt;Node3</title>
<g id="a_edge2_Node000001_Node000003"><a xlink:title=" ">
<path fill="none" stroke="#63b8ff" d="M126.43,-21.38C134.46,-20.4 142.72,-19.39 150.85,-18.39"/>
<polygon fill="#63b8ff" stroke="#63b8ff" points="151.21,-21.88 160.71,-17.19 150.36,-14.93 151.21,-21.88"/>
</a>
</g>
</g>
</g>
</svg>
