<?xml version="1.0" encoding="UTF-8" standalone="no"?>
<!DOCTYPE svg PUBLIC "-//W3C//DTD SVG 1.1//EN"
 "http://www.w3.org/Graphics/SVG/1.1/DTD/svg11.dtd">
<!-- Generated by graphviz version 13.1.0 (20250701.0955)
 -->
<!-- Title: max7219_basic_init Pages: 1 -->
<svg width="292pt" height="544pt"
 viewBox="0.00 0.00 292.00 544.00" xmlns="http://www.w3.org/2000/svg" xmlns:xlink="http://www.w3.org/1999/xlink">
<g id="graph0" class="graph" transform="scale(1 1) rotate(0) translate(4 540)">
<title>max7219_basic_init</title>
<!-- Node1 -->
<g id="Node000001" class="node">
<title>Node1</title>
<g id="a_Node000001"><a xlink:title="basic example init">
<polygon fill="#999999" stroke="#666666" points="102.25,-278 0,-278 0,-258 102.25,-258 102.25,-278"/>
<text xml:space="preserve" text-anchor="middle" x="51.12" y="-264.5" font-family="Helvetica,sans-Serif" font-size="10.00">max7219_basic_init</text>
</a>
</g>
</g>
<!-- Node2 -->
<g id="Node000002" class="node">
<title>Node2</title>
<g id="a_Node000002"><a xlink:href="group__max7219__base__driver.html#ga7ea5c1ff55eeea0dfbc3d69e59f2b4c8" target="_top" xlink:title="close the chip">
<polygon fill="white" stroke="#666666" points="253.25,-536 169,-536 169,-516 253.25,-516 253.25,-536"/>
<text xml:space="preserve" text-anchor="middle" x="211.12" y="-522.5" font-family="Helvetica,sans-Serif" font-size="10.00">max7219_deinit</text>
</a>
</g>
</g>
<!-- Node1&#45;&gt;Node2 -->
<g id="edge1_Node000001_Node000002" class="edge">
<title>Node1&#45;&gt;Node2</title>
<g id="a_edge1_Node000001_Node000002"><a xlink:title=" ">
<path fill="none" stroke="#63b8ff" d="M52.6,-278.45C54.87,-315.57 67.68,-442.35 138.25,-507 143.88,-512.16 150.74,-515.94 157.96,-518.72"/>
<polygon fill="#63b8ff" stroke="#63b8ff" points="156.68,-521.98 167.27,-521.65 158.78,-515.31 156.68,-521.98"/>
</a>
</g>
</g>
<!-- Node3 -->
<g id="Node000003" class="node">
<title>Node3</title>
<g id="a_Node000003"><a xlink:href="group__max7219__base__driver.html#ga3a54db8a399f6092416bf79b161d24ec" target="_top" xlink:title="initialize the chip">
<polygon fill="white" stroke="#666666" points="248,-498 174.25,-498 174.25,-478 248,-478 248,-498"/>
<text xml:space="preserve" text-anchor="middle" x="211.12" y="-484.5" font-family="Helvetica,sans-Serif" font-size="10.00">max7219_init</text>
</a>
</g>
</g>
<!-- Node1&#45;&gt;Node3 -->
<g id="edge2_Node000001_Node000003" class="edge">
<title>Node1&#45;&gt;Node3</title>
<g id="a_edge2_Node000001_Node000003"><a xlink:title=" ">
<path fill="none" stroke="#63b8ff" d="M53.35,-278.17C57.89,-311.12 76.76,-415.91 138.25,-469 145.26,-475.06 154,-479.21 162.94,-482.05"/>
<polygon fill="#63b8ff" stroke="#63b8ff" points="161.81,-485.38 172.37,-484.52 163.59,-478.6 161.81,-485.38"/>
</a>
</g>
</g>
<!-- Node4 -->
<g id="Node000004" class="node">
<title>Node4</title>
<g id="a_Node000004"><a xlink:href="group__max7219__interface__driver.html#gac5a6315dfa6ab9ac85bd015c89bf4c5e" target="_top" xlink:title="interface print format data">
<polygon fill="white" stroke="#666666" points="276.12,-460 146.12,-460 146.12,-428 276.12,-428 276.12,-460"/>
<text xml:space="preserve" text-anchor="start" x="154.12" y="-446.5" font-family="Helvetica,sans-Serif" font-size="10.00">max7219_interface_debug</text>
<text xml:space="preserve" text-anchor="middle" x="211.12" y="-434.5" font-family="Helvetica,sans-Serif" font-size="10.00">_print</text>
</a>
</g>
</g>
<!-- Node1&#45;&gt;Node4 -->
<g id="edge3_Node000001_Node000004" class="edge">
<title>Node1&#45;&gt;Node4</title>
<g id="a_edge3_Node000001_Node000004"><a xlink:title=" ">
<path fill="none" stroke="#63b8ff" d="M55.23,-278.48C63.81,-305.7 90.44,-379.25 138.25,-419 139.36,-419.93 140.52,-420.82 141.7,-421.68"/>
<polygon fill="#63b8ff" stroke="#63b8ff" points="139.67,-424.54 150,-426.86 143.37,-418.6 139.67,-424.54"/>
</a>
</g>
</g>
<!-- Node5 -->
<g id="Node000005" class="node">
<title>Node5</title>
<g id="a_Node000005"><a xlink:href="group__max7219__interface__driver.html#ga9c9afa8b37478af650f3f81591c02761" target="_top" xlink:title="interface delay ms">
<polygon fill="white" stroke="#666666" points="284,-410 138.25,-410 138.25,-390 284,-390 284,-410"/>
<text xml:space="preserve" text-anchor="middle" x="211.12" y="-396.5" font-family="Helvetica,sans-Serif" font-size="10.00">max7219_interface_delay_ms</text>
</a>
</g>
</g>
<!-- Node1&#45;&gt;Node5 -->
<g id="edge4_Node000001_Node000005" class="edge">
<title>Node1&#45;&gt;Node5</title>
<g id="a_edge4_Node000001_Node000005"><a xlink:title=" ">
<path fill="none" stroke="#63b8ff" d="M56.96,-278.26C68.03,-300.58 97.43,-353.73 138.25,-381 140.34,-382.4 142.53,-383.69 144.8,-384.89"/>
<polygon fill="#63b8ff" stroke="#63b8ff" points="143.16,-387.99 153.71,-388.94 146.05,-381.62 143.16,-387.99"/>
</a>
</g>
</g>
<!-- Node6 -->
<g id="Node000006" class="node">
<title>Node6</title>
<g id="a_Node000006"><a xlink:href="group__max7219__interface__driver.html#ga27666673fe8d3828158c16a401c455f7" target="_top" xlink:title="interface spi bus deinit">
<polygon fill="white" stroke="#666666" points="269.38,-372 152.88,-372 152.88,-340 269.38,-340 269.38,-372"/>
<text xml:space="preserve" text-anchor="start" x="160.88" y="-358.5" font-family="Helvetica,sans-Serif" font-size="10.00">max7219_interface_spi</text>
<text xml:space="preserve" text-anchor="middle" x="211.12" y="-346.5" font-family="Helvetica,sans-Serif" font-size="10.00">_deinit</text>
</a>
</g>
</g>
<!-- Node1&#45;&gt;Node6 -->
<g id="edge5_Node000001_Node000006" class="edge">
<title>Node1&#45;&gt;Node6</title>
<g id="a_edge5_Node000001_Node000006"><a xlink:title=" ">
<path fill="none" stroke="#63b8ff" d="M63.91,-278.41C79.84,-292.03 109.54,-315.94 138.25,-331 140.95,-332.42 143.75,-333.78 146.61,-335.1"/>
<polygon fill="#63b8ff" stroke="#63b8ff" points="145.19,-338.29 155.76,-339.01 147.94,-331.86 145.19,-338.29"/>
</a>
</g>
</g>
<!-- Node7 -->
<g id="Node000007" class="node">
<title>Node7</title>
<g id="a_Node000007"><a xlink:href="group__max7219__interface__driver.html#ga0a0184800ae9bc98a87175a3c788ddef" target="_top" xlink:title="interface spi bus init">
<polygon fill="white" stroke="#666666" points="278.38,-322 143.88,-322 143.88,-302 278.38,-302 278.38,-322"/>
<text xml:space="preserve" text-anchor="middle" x="211.12" y="-308.5" font-family="Helvetica,sans-Serif" font-size="10.00">max7219_interface_spi_init</text>
</a>
</g>
</g>
<!-- Node1&#45;&gt;Node7 -->
<g id="edge6_Node000001_Node000007" class="edge">
<title>Node1&#45;&gt;Node7</title>
<g id="a_edge6_Node000001_Node000007"><a xlink:title=" ">
<path fill="none" stroke="#63b8ff" d="M87.27,-278.41C102.86,-282.97 121.45,-288.34 138.25,-293 144.94,-294.86 152,-296.77 158.97,-298.64"/>
<polygon fill="#63b8ff" stroke="#63b8ff" points="157.76,-301.94 168.32,-301.13 159.56,-295.17 157.76,-301.94"/>
</a>
</g>
</g>
<!-- Node8 -->
<g id="Node000008" class="node">
<title>Node8</title>
<g id="a_Node000008"><a xlink:href="group__max7219__interface__driver.html#ga3a74553c8b80753b0fce1f20cb9d4f4c" target="_top" xlink:title="interface spi bus write">
<polygon fill="white" stroke="#666666" points="269.38,-284 152.88,-284 152.88,-252 269.38,-252 269.38,-284"/>
<text xml:space="preserve" text-anchor="start" x="160.88" y="-270.5" font-family="Helvetica,sans-Serif" font-size="10.00">max7219_interface_spi</text>
<text xml:space="preserve" text-anchor="middle" x="211.12" y="-258.5" font-family="Helvetica,sans-Serif" font-size="10.00">_write</text>
</a>
</g>
</g>
<!-- Node1&#45;&gt;Node8 -->
<g id="edge7_Node000001_Node000008" class="edge">
<title>Node1&#45;&gt;Node8</title>
<g id="a_edge7_Node000001_Node000008"><a xlink:title=" ">
<path fill="none" stroke="#63b8ff" d="M102.55,-268C114.85,-268 128.21,-268 141.2,-268"/>
<polygon fill="#63b8ff" stroke="#63b8ff" points="140.97,-271.5 150.97,-268 140.97,-264.5 140.97,-271.5"/>
</a>
</g>
</g>
<!-- Node9 -->
<g id="Node000009" class="node">
<title>Node9</title>
<g id="a_Node000009"><a xlink:href="group__max7219__interface__driver.html#ga4ff1ce83d8ce12b8d28fc65b99bc1758" target="_top" xlink:title="interface spi bus write command">
<polygon fill="white" stroke="#666666" points="269.38,-234 152.88,-234 152.88,-202 269.38,-202 269.38,-234"/>
<text xml:space="preserve" text-anchor="start" x="160.88" y="-220.5" font-family="Helvetica,sans-Serif" font-size="10.00">max7219_interface_spi</text>
<text xml:space="preserve" text-anchor="middle" x="211.12" y="-208.5" font-family="Helvetica,sans-Serif" font-size="10.00">_write_cmd</text>
</a>
</g>
</g>
<!-- Node1&#45;&gt;Node9 -->
<g id="edge8_Node000001_Node000009" class="edge">
<title>Node1&#45;&gt;Node9</title>
<g id="a_edge8_Node000001_Node000009"><a xlink:title=" ">
<path fill="none" stroke="#63b8ff" d="M85.25,-257.52C103.2,-251.84 125.99,-244.62 147.18,-237.92"/>
<polygon fill="#63b8ff" stroke="#63b8ff" points="148.16,-241.28 156.63,-234.93 146.04,-234.61 148.16,-241.28"/>
</a>
</g>
</g>
<!-- Node10 -->
<g id="Node000010" class="node">
<title>Node10</title>
<g id="a_Node000010"><a xlink:href="group__max7219__base__driver.html#ga0d4bc45ce0277eb4e84f64ebae054f81" target="_top" xlink:title="set the decode mode">
<polygon fill="white" stroke="#666666" points="266.75,-184 155.5,-184 155.5,-164 266.75,-164 266.75,-184"/>
<text xml:space="preserve" text-anchor="middle" x="211.12" y="-170.5" font-family="Helvetica,sans-Serif" font-size="10.00">max7219_set_decode</text>
</a>
</g>
</g>
<!-- Node1&#45;&gt;Node10 -->
<g id="edge9_Node000001_Node000010" class="edge">
<title>Node1&#45;&gt;Node10</title>
<g id="a_edge9_Node000001_Node000010"><a xlink:title=" ">
<path fill="none" stroke="#63b8ff" d="M61.08,-257.59C75.63,-241.36 106.02,-210.09 138.25,-193 141.44,-191.31 144.8,-189.76 148.24,-188.34"/>
<polygon fill="#63b8ff" stroke="#63b8ff" points="149.16,-191.73 157.34,-184.99 146.74,-185.16 149.16,-191.73"/>
</a>
</g>
</g>
<!-- Node11 -->
<g id="Node000011" class="node">
<title>Node11</title>
<g id="a_Node000011"><a xlink:href="group__max7219__base__driver.html#gad7e36d5d4bf666ebf284d0e932507c4d" target="_top" xlink:title="set the display test mode">
<polygon fill="white" stroke="#666666" points="266.38,-146 155.88,-146 155.88,-114 266.38,-114 266.38,-146"/>
<text xml:space="preserve" text-anchor="start" x="163.88" y="-132.5" font-family="Helvetica,sans-Serif" font-size="10.00">max7219_set_display</text>
<text xml:space="preserve" text-anchor="middle" x="211.12" y="-120.5" font-family="Helvetica,sans-Serif" font-size="10.00">_test_mode</text>
</a>
</g>
</g>
<!-- Node1&#45;&gt;Node11 -->
<g id="edge10_Node000001_Node000011" class="edge">
<title>Node1&#45;&gt;Node11</title>
<g id="a_edge10_Node000001_Node000011"><a xlink:title=" ">
<path fill="none" stroke="#63b8ff" d="M57.29,-257.64C68.81,-235.58 98.7,-183.66 138.25,-155 140.54,-153.34 142.96,-151.78 145.45,-150.32"/>
<polygon fill="#63b8ff" stroke="#63b8ff" points="146.81,-153.56 154.08,-145.85 143.59,-147.34 146.81,-153.56"/>
</a>
</g>
</g>
<!-- Node12 -->
<g id="Node000012" class="node">
<title>Node12</title>
<g id="a_Node000012"><a xlink:href="group__max7219__base__driver.html#ga56cc48e4c62ed2a84964b8a1335a02a1" target="_top" xlink:title="set the display intensity">
<polygon fill="white" stroke="#666666" points="269.38,-96 152.88,-96 152.88,-76 269.38,-76 269.38,-96"/>
<text xml:space="preserve" text-anchor="middle" x="211.12" y="-82.5" font-family="Helvetica,sans-Serif" font-size="10.00">max7219_set_intensity</text>
</a>
</g>
</g>
<!-- Node1&#45;&gt;Node12 -->
<g id="edge11_Node000001_Node000012" class="edge">
<title>Node1&#45;&gt;Node12</title>
<g id="a_edge11_Node000001_Node000012"><a xlink:title=" ">
<path fill="none" stroke="#63b8ff" d="M54.47,-257.74C61.62,-228.93 85.88,-146.62 138.25,-105 139.74,-103.81 141.3,-102.7 142.92,-101.66"/>
<polygon fill="#63b8ff" stroke="#63b8ff" points="144.2,-104.94 151.34,-97.12 140.88,-98.78 144.2,-104.94"/>
</a>
</g>
</g>
<!-- Node13 -->
<g id="Node000013" class="node">
<title>Node13</title>
<g id="a_Node000013"><a xlink:href="group__max7219__base__driver.html#ga6e3a95d3d90fa47a6754527bb0322565" target="_top" xlink:title="set the chip mode">
<polygon fill="white" stroke="#666666" points="263,-58 159.25,-58 159.25,-38 263,-38 263,-58"/>
<text xml:space="preserve" text-anchor="middle" x="211.12" y="-44.5" font-family="Helvetica,sans-Serif" font-size="10.00">max7219_set_mode</text>
</a>
</g>
</g>
<!-- Node1&#45;&gt;Node13 -->
<g id="edge12_Node000001_Node000013" class="edge">
<title>Node1&#45;&gt;Node13</title>
<g id="a_edge12_Node000001_Node000013"><a xlink:title=" ">
<path fill="none" stroke="#63b8ff" d="M53.35,-257.83C57.89,-224.88 76.76,-120.09 138.25,-67 141.42,-64.27 144.93,-61.92 148.66,-59.91"/>
<polygon fill="#63b8ff" stroke="#63b8ff" points="149.84,-63.22 157.54,-55.94 146.98,-56.82 149.84,-63.22"/>
</a>
</g>
</g>
<!-- Node14 -->
<g id="Node000014" class="node">
<title>Node14</title>
<g id="a_Node000014"><a xlink:href="group__max7219__base__driver.html#ga0e8c5b3d37fa078ac97cc1a1ec3be05f" target="_top" xlink:title="set the scan limit">
<polygon fill="white" stroke="#666666" points="273.12,-20 149.12,-20 149.12,0 273.12,0 273.12,-20"/>
<text xml:space="preserve" text-anchor="middle" x="211.12" y="-6.5" font-family="Helvetica,sans-Serif" font-size="10.00">max7219_set_scan_limit</text>
</a>
</g>
</g>
<!-- Node1&#45;&gt;Node14 -->
<g id="edge13_Node000001_Node000014" class="edge">
<title>Node1&#45;&gt;Node14</title>
<g id="a_edge13_Node000001_Node000014"><a xlink:title=" ">
<path fill="none" stroke="#63b8ff" d="M52.6,-257.55C54.87,-220.43 67.68,-93.65 138.25,-29 139.18,-28.15 140.14,-27.34 141.13,-26.56"/>
<polygon fill="#63b8ff" stroke="#63b8ff" points="142.88,-29.59 149.47,-21.29 139.14,-23.67 142.88,-29.59"/>
</a>
</g>
</g>
</g>
</svg>
